<svg width="100" height="100" viewBox="0 0 100 100" fill="none" xmlns="http://www.w3.org/2000/svg">
  <rect width="100" height="100" rx="50" fill="#FFC107" />
  <path d="M50 20C45.5817 20 42 23.5817 42 28C42 32.4183 45.5817 36 50 36C54.4183 36 58 32.4183 58 28C58 23.5817 54.4183 20 50 20Z" fill="#FFECB3" />
  <path d="M65 44H35C33.8954 44 33 44.8954 33 46V80C33 81.1046 33.8954 82 35 82H65C66.1046 82 67 81.1046 67 80V46C67 44.8954 66.1046 44 65 44Z" fill="#FFECB3" />
  <path d="M50 36V82" stroke="#FFC107" stroke-width="4" stroke-linecap="round" />
  <ellipse cx="50" cy="28" rx="4" ry="6" fill="#FF9800" />
</svg>